<svg width="26" height="26" viewBox="0 0 26 26" fill="none" xmlns="http://www.w3.org/2000/svg">
<path d="M22.4812 17.2809C20.5553 18.152 18.4096 18.4156 16.3301 18.0366C14.2506 17.6575 12.3359 16.6537 10.8412 15.1591C9.34657 13.6644 8.34283 11.7497 7.96376 9.67023C7.58468 7.5907 7.84827 5.44504 8.71941 3.5191C7.18614 4.21202 5.84386 5.26656 4.80772 6.59225C3.77158 7.91794 3.07251 9.47521 2.77049 11.1305C2.46848 12.7857 2.57253 14.4895 3.07372 16.0957C3.57491 17.7019 4.45828 19.1625 5.64803 20.3523C6.83779 21.542 8.29842 22.4254 9.90462 22.9266C11.5108 23.4278 13.2146 23.5318 14.8699 23.2298C16.5251 22.9278 18.0824 22.2287 19.4081 21.1926C20.7338 20.1565 21.7883 18.8142 22.4812 17.2809V17.2809Z" fill="#18181B"/>
</svg>
