<?xml version="1.0" standalone="no"?>
<!DOCTYPE svg PUBLIC "-//W3C//DTD SVG 20010904//EN"
 "http://www.w3.org/TR/2001/REC-SVG-20010904/DTD/svg10.dtd">
<svg version="1.0" xmlns="http://www.w3.org/2000/svg"
 width="700.000000pt" height="700.000000pt" viewBox="0 0 700.000000 700.000000"
 preserveAspectRatio="xMidYMid meet">
<metadata>
Created by potrace 1.14, written by Peter Selinger 2001-2017
</metadata>
<g transform="translate(0.000000,700.000000) scale(0.100000,-0.100000)"
fill="#000000" stroke="none">
<path d="M3278 6996 c-1 -2 -42 -6 -89 -10 -47 -4 -95 -8 -105 -10 -10 -2 -48
-7 -84 -12 -36 -4 -67 -8 -70 -9 -3 -1 -25 -5 -50 -9 -25 -4 -101 -21 -170
-38 -69 -16 -135 -31 -147 -34 -38 -7 -265 -85 -366 -125 -151 -60 -363 -167
-522 -262 -33 -20 -230 -151 -235 -157 -3 -3 -43 -34 -90 -70 -426 -324 -825
-829 -1035 -1310 -25 -58 -50 -114 -55 -125 -45 -93 -150 -427 -176 -560 -2
-11 -10 -54 -19 -95 -29 -146 -35 -191 -52 -370 -15 -162 -8 -591 12 -711 2
-13 6 -46 9 -74 9 -78 23 -156 51 -285 23 -107 88 -333 114 -395 5 -11 25 -65
46 -120 63 -166 251 -535 312 -610 4 -6 29 -42 54 -80 169 -257 438 -545 719
-770 92 -74 370 -265 386 -265 4 0 15 -6 23 -14 31 -27 311 -165 449 -220 266
-107 553 -185 821 -222 25 -3 57 -8 71 -10 163 -25 682 -25 842 1 13 2 46 7
73 10 74 11 87 13 120 19 17 4 46 9 65 12 51 8 213 48 300 74 253 74 522 187
734 309 49 28 91 51 93 51 10 0 268 180 353 247 151 118 324 281 450 422 36
41 70 79 76 85 65 68 263 353 352 508 47 80 182 351 182 364 0 3 8 24 19 47
53 118 147 417 177 562 17 81 54 301 59 350 4 33 9 71 11 85 9 48 11 526 3
612 -8 84 -17 171 -24 213 -1 11 -6 43 -10 70 -4 28 -22 118 -41 200 -267
1195 -1138 2161 -2299 2553 -167 56 -419 119 -555 137 -19 3 -46 7 -60 10 -13
2 -54 7 -90 11 -36 3 -76 8 -90 11 -27 5 -536 14 -542 9z m437 -880 c862 -78
1594 -535 2042 -1276 164 -272 299 -648 337 -940 3 -25 8 -54 10 -65 25 -126
25 -461 0 -675 -4 -38 -47 -261 -59 -310 -20 -85 -85 -272 -125 -367 -215
-500 -545 -891 -1010 -1198 -112 -73 -358 -195 -500 -247 -116 -43 -308 -98
-390 -112 -19 -3 -45 -8 -58 -11 -115 -22 -316 -39 -472 -39 -313 0 -651 64
-950 180 -95 37 -319 147 -386 190 -88 55 -167 107 -184 121 -176 138 -240
193 -339 293 -221 224 -412 503 -534 784 -93 213 -164 460 -192 666 -3 25 -8
52 -10 60 -23 92 -23 545 1 664 2 11 7 41 10 66 5 39 26 145 40 205 3 11 7 31
10 45 10 53 69 230 109 330 179 445 485 840 875 1131 68 50 169 119 175 119 4
0 19 8 33 19 165 115 535 263 792 316 8 2 26 6 40 9 14 3 42 8 63 11 49 7 106
15 137 20 14 3 66 7 115 11 50 3 91 7 92 8 5 4 258 -2 328 -8z"/>
</g>
</svg>
