<svg width="22" height="22" viewBox="0 0 22 22" fill="none" xmlns="http://www.w3.org/2000/svg">
<path fill-rule="evenodd" clip-rule="evenodd" d="M10.9996 0.599976C11.3444 0.599976 11.6751 0.736939 11.9188 0.980737C12.1626 1.22453 12.2996 1.55519 12.2996 1.89998V3.19998C12.2996 3.54476 12.1626 3.87542 11.9188 4.11921C11.6751 4.36301 11.3444 4.49998 10.9996 4.49998C10.6548 4.49998 10.3242 4.36301 10.0804 4.11921C9.83657 3.87542 9.69961 3.54476 9.69961 3.19998V1.89998C9.69961 1.55519 9.83657 1.22453 10.0804 0.980737C10.3242 0.736939 10.6548 0.599976 10.9996 0.599976V0.599976ZM16.1996 11C16.1996 12.3791 15.6518 13.7017 14.6766 14.6769C13.7014 15.6521 12.3787 16.2 10.9996 16.2C9.62048 16.2 8.29784 15.6521 7.32265 14.6769C6.34747 13.7017 5.79961 12.3791 5.79961 11C5.79961 9.62085 6.34747 8.29821 7.32265 7.32302C8.29784 6.34783 9.62048 5.79998 10.9996 5.79998C12.3787 5.79998 13.7014 6.34783 14.6766 7.32302C15.6518 8.29821 16.1996 9.62085 16.1996 11V11ZM15.5964 17.435L16.5155 18.3541C16.7607 18.5909 17.0891 18.7219 17.4299 18.719C17.7708 18.716 18.0968 18.5793 18.3379 18.3382C18.5789 18.0972 18.7156 17.7712 18.7186 17.4303C18.7215 17.0894 18.5905 16.7611 18.3537 16.5159L17.4346 15.5968C17.1894 15.36 16.861 15.2289 16.5202 15.2319C16.1793 15.2349 15.8533 15.3716 15.6122 15.6126C15.3712 15.8536 15.2345 16.1797 15.2315 16.5206C15.2286 16.8614 15.3596 17.1898 15.5964 17.435V17.435ZM18.3524 3.64588C18.5961 3.88966 18.733 4.22026 18.733 4.56498C18.733 4.90969 18.5961 5.24029 18.3524 5.48408L17.4346 6.40318C17.3147 6.52734 17.1712 6.62638 17.0126 6.69451C16.854 6.76264 16.6834 6.7985 16.5108 6.8C16.3382 6.8015 16.167 6.76861 16.0073 6.70324C15.8475 6.63788 15.7024 6.54135 15.5803 6.41929C15.4582 6.29723 15.3617 6.15208 15.2963 5.99232C15.231 5.83255 15.1981 5.66137 15.1996 5.48875C15.2011 5.31614 15.2369 5.14556 15.3051 4.98695C15.3732 4.82834 15.4722 4.6849 15.5964 4.56498L16.5155 3.64588C16.7593 3.40216 17.0899 3.26525 17.4346 3.26525C17.7793 3.26525 18.1099 3.40216 18.3537 3.64588H18.3524ZM20.0996 12.3C20.4444 12.3 20.7751 12.163 21.0189 11.9192C21.2626 11.6754 21.3996 11.3448 21.3996 11C21.3996 10.6552 21.2626 10.3245 21.0189 10.0807C20.7751 9.83694 20.4444 9.69998 20.0996 9.69998H18.7996C18.4548 9.69998 18.1242 9.83694 17.8804 10.0807C17.6366 10.3245 17.4996 10.6552 17.4996 11C17.4996 11.3448 17.6366 11.6754 17.8804 11.9192C18.1242 12.163 18.4548 12.3 18.7996 12.3H20.0996ZM10.9996 17.5C11.3444 17.5 11.6751 17.6369 11.9188 17.8807C12.1626 18.1245 12.2996 18.4552 12.2996 18.8V20.1C12.2996 20.4448 12.1626 20.7754 11.9188 21.0192C11.6751 21.263 11.3444 21.4 10.9996 21.4C10.6548 21.4 10.3242 21.263 10.0804 21.0192C9.83657 20.7754 9.69961 20.4448 9.69961 20.1V18.8C9.69961 18.4552 9.83657 18.1245 10.0804 17.8807C10.3242 17.6369 10.6548 17.5 10.9996 17.5V17.5ZM4.56461 6.40318C4.68531 6.52396 4.82861 6.61979 4.98635 6.68519C5.14408 6.75059 5.31315 6.78428 5.4839 6.78434C5.65465 6.7844 5.82375 6.75083 5.98152 6.68554C6.1393 6.62025 6.28268 6.52452 6.40346 6.40383C6.52424 6.28313 6.62007 6.13982 6.68547 5.98209C6.75087 5.82436 6.78456 5.65529 6.78462 5.48454C6.78468 5.31378 6.75111 5.14469 6.68582 4.98691C6.62053 4.82913 6.52481 4.68576 6.40411 4.56498L5.48371 3.64588C5.23853 3.40907 4.91014 3.27804 4.56929 3.281C4.22843 3.28396 3.90238 3.42068 3.66135 3.66171C3.42031 3.90274 3.2836 4.2288 3.28063 4.56965C3.27767 4.91051 3.4087 5.23889 3.64551 5.48408L4.56461 6.40318V6.40318ZM6.40281 17.435L5.48371 18.3541C5.23853 18.5909 4.91014 18.7219 4.56929 18.719C4.22843 18.716 3.90238 18.5793 3.66135 18.3382C3.42031 18.0972 3.2836 17.7712 3.28063 17.4303C3.27767 17.0894 3.4087 16.7611 3.64551 16.5159L4.56461 15.5968C4.80979 15.36 5.13818 15.2289 5.47903 15.2319C5.81989 15.2349 6.14594 15.3716 6.38697 15.6126C6.628 15.8536 6.76472 16.1797 6.76769 16.5206C6.77065 16.8614 6.63962 17.1898 6.40281 17.435V17.435ZM3.19961 12.3C3.54439 12.3 3.87505 12.163 4.11885 11.9192C4.36265 11.6754 4.49961 11.3448 4.49961 11C4.49961 10.6552 4.36265 10.3245 4.11885 10.0807C3.87505 9.83694 3.54439 9.69998 3.19961 9.69998H1.89961C1.55483 9.69998 1.22417 9.83694 0.980371 10.0807C0.736573 10.3245 0.599609 10.6552 0.599609 11C0.599609 11.3448 0.736573 11.6754 0.980371 11.9192C1.22417 12.163 1.55483 12.3 1.89961 12.3H3.19961Z" fill="white"/>
</svg>
